<svg version="1.0" xmlns="http://www.w3.org/2000/svg"
 viewBox="0 0 757.000000 176.000000"
 preserveAspectRatio="xMidYMid meet">
<g transform="translate(0.000000,176.000000) scale(0.100000,-0.100000)"
fill="#ffffff" stroke="none">
<path d="M990 1751 l-25 -8 -41 -21 -42 -21 -41 -47 -41 -47 -15 -50 -15 -51
0 -42 0 -43 16 -48 16 -47 -38 -33 -39 -33 -127 -105 -126 -105 -11 0 -12 0
-41 21 -41 21 -67 0 -67 1 -54 -25 -54 -25 -32 -27 -32 -27 -28 -57 -28 -57 1
-75 0 -75 23 -51 22 -51 42 -41 42 -41 48 -21 47 -21 48 -6 49 -5 56 16 56 16
47 36 47 36 71 -50 71 -49 57 -39 58 -39 -6 -20 -6 -20 -5 -60 -5 -60 21 -56
21 -56 34 -39 34 -40 53 -29 54 -30 80 1 80 1 47 21 47 21 39 39 39 39 24 49
24 49 0 80 0 80 -23 42 -22 42 -31 35 -30 35 -52 25 -52 25 -46 6 -47 7 -55
-12 -55 -11 -45 -30 -45 -29 -135 92 -135 93 2 75 1 75 -19 48 -19 48 9 8 9 8
150 126 151 126 58 -30 59 -29 76 0 76 0 53 27 54 27 39 44 38 44 22 57 21 56
-5 63 -5 62 -26 55 -27 54 -41 36 -41 35 -54 20 -54 20 -52 -1 -52 -1 -25 -7z"/>
<path d="M2735 1474 l-21 -5 -12 -20 -13 -20 -111 -212 -111 -212 -45 -88 -45
-88 -7 8 -7 8 -63 120 -63 120 -73 135 -72 135 -28 58 -28 57 -93 0 -93 0 0
-545 0 -545 84 0 84 0 7 27 7 28 -2 330 -2 330 1 10 1 10 53 -95 53 -95 108
-200 108 -200 13 -14 13 -13 35 63 35 64 80 150 80 150 35 62 35 62 7 20 6 19
14 12 15 12 0 -366 0 -366 90 0 90 0 -2 548 -3 547 -70 1 -70 2 -20 -4z"/>
<path d="M4510 930 l0 -550 85 0 85 0 0 184 0 185 12 7 11 7 31 -34 31 -35
120 -157 120 -157 108 0 107 0 0 5 0 6 -166 205 -165 205 3 8 3 8 101 109 101
109 57 64 57 64 -13 9 -13 8 -87 -1 -88 -2 -13 -11 -14 -11 -134 -155 -134
-155 -10 -7 -10 -7 -7 7 -8 8 -2 314 -3 315 -82 3 -83 3 0 -551z"/>
<path d="M6107 1473 l-7 -6 0 -544 0 -543 90 0 90 0 0 550 0 550 -83 0 -84 0
-6 -7z"/>
<path d="M6460 930 l0 -550 85 0 85 0 0 550 0 550 -85 0 -85 0 0 -550z"/>
<path d="M3334 1180 l-41 -8 -45 -22 -46 -21 -45 -45 -46 -45 -20 -55 -21 -55
0 -9 0 -10 90 0 90 0 0 19 0 18 22 28 21 27 33 14 33 14 58 0 58 0 34 -18 35
-17 20 -27 20 -28 0 -47 1 -48 -160 -6 -160 -6 -45 -17 -45 -17 -38 -26 -39
-27 -21 -40 -21 -41 -1 -70 0 -70 24 -42 25 -43 37 -26 38 -26 38 -14 38 -13
80 0 80 -1 45 21 45 20 43 42 42 41 0 -52 0 -52 88 0 88 0 -3 285 -2 286 -11
39 -11 39 -32 43 -33 43 -43 24 -42 23 -52 14 -52 14 -55 -1 -55 -1 -41 -8z
m256 -489 l0 -28 -11 -34 -12 -34 -31 -33 -31 -33 -54 -16 -54 -15 -45 5 -44
5 -27 19 -26 20 -11 34 -11 33 9 28 10 27 14 12 14 11 37 14 38 13 118 1 117
0 0 -29z"/>
<path d="M4282 1175 l-43 -13 -35 -24 -34 -23 -26 -37 -26 -38 -10 6 -9 6 4
59 4 59 -88 0 -89 0 0 -395 0 -395 90 0 90 0 0 228 0 228 16 47 16 47 30 25
29 25 56 16 56 16 44 -6 43 -6 0 95 0 95 -37 -1 -38 0 -43 -14z"/>
<path d="M5494 1176 l-40 -14 -40 -20 -40 -20 -41 -40 -41 -40 -25 -44 -25
-43 -17 -59 -18 -60 5 -91 5 -92 27 -58 27 -59 35 -43 36 -44 42 -26 41 -27
58 -18 59 -18 62 0 62 0 55 16 54 16 35 21 35 20 33 31 34 31 29 58 29 57 -94
0 -94 0 -17 -26 -17 -26 -55 -25 -55 -26 -48 6 -49 6 -38 19 -38 20 -17 19
-17 18 -20 45 -21 45 0 17 0 18 293 2 292 3 -3 75 -2 75 -20 60 -20 60 -45 57
-44 56 -74 37 -74 37 -79 4 -79 3 -41 -13z m209 -175 l46 -30 21 -41 21 -42
-3 -16 -3 -17 -192 -2 -193 -2 -4 8 -5 7 23 50 23 49 19 17 20 17 34 15 35 15
56 1 55 0 47 -29z"/>
<path d="M7060 1176 l-45 -13 -35 -18 -34 -18 -57 -54 -57 -54 -27 -60 -27
-61 -10 -68 -10 -69 11 -63 11 -63 30 -62 30 -61 55 -51 55 -50 58 -22 57 -23
100 -1 100 0 68 32 68 32 47 49 47 48 27 56 27 56 12 72 11 72 -11 60 -10 60
-25 54 -25 54 -50 53 -51 54 -53 26 -54 26 -44 10 -44 11 -50 -1 -50 -1 -45
-12z m198 -175 l37 -19 27 -29 27 -28 16 -38 15 -37 6 -58 6 -57 -21 -56 -21
-55 -32 -33 -32 -32 -30 -16 -31 -16 -60 -1 -60 0 -41 21 -41 22 -26 30 -25
30 -17 52 -18 52 5 62 5 62 17 35 17 35 29 30 30 30 32 16 33 17 58 0 58 0 37
-19z"/>
</g>
</svg>

